<?xml version="1.0" encoding="utf-8"?>
<!-- Generator: Adobe Illustrator 27.1.1, SVG Export Plug-In . SVG Version: 6.00 Build 0)  -->
<svg version="1.1" id="Capa_1" xmlns="http://www.w3.org/2000/svg" xmlns:xlink="http://www.w3.org/1999/xlink" x="0px" y="0px"
	 viewBox="0 0 342 342" style="enable-background:new 0 0 342 342;" xml:space="preserve">
<style type="text/css">
	.st0{fill-rule:evenodd;clip-rule:evenodd;fill:#FFFFFF;}
</style>
<path class="st0" d="M88.5,0L88.5,0C75,0,62,5.4,52.4,14.9C42.9,24.5,37.5,37.5,37.5,51v240c0,28.2,22.8,51,51,51h0V0z"/>
<path class="st0" d="M160.5,181.6c0-13.5-5.4-26.5-14.9-36.1s-22.5-14.9-36.1-14.9h0V291c0,28.2,22.8,51,51,51V181.6z"/>
<path class="st0" d="M232.5,51c0-13.5-5.4-26.5-14.9-36.1C208,5.4,195,0,181.5,0v291c0,28.2,22.8,51,51,51V51z"/>
<path class="st0" d="M279,291c14.1,0,25.5,11.4,25.5,25.5c0,14.1-11.4,25.5-25.5,25.5s-25.5-11.4-25.5-25.5
	C253.5,302.4,264.9,291,279,291z"/>
</svg>
